{"title":"A Lot Like Love.2005.SWESUB.DVDRip.XviD.AC3.(5.1).-Zen_Bud","uid":5546164,"size":1470240284,"categoryP":"video","categoryS":"movies","magnet":"?xt=urn:btih:ee7ea5b5fff274f672ddc7ea961598a757b654cf&amp;dn=A+Lot+Like+Love.2005.SWESUB.DVDRip.XviD.AC3.%285.1%29.-Zen_Bud&amp;tr=udp%3A%2F%2Ftracker.openbittorrent.com%3A80&amp;tr=udp%3A%2F%2Fopen.demonii.com%3A1337&amp;tr=udp%3A%2F%2Ftracker.coppersurfer.tk%3A6969&amp;tr=udp%3A%2F%2Fexodus.desync.com%3A6969","seeders":1,"leechers":0,"uploader":"Zen_Bud","files":-1,"time":1273394391,"description":"General\nComplete name                    : A Lot Like Love.avi\nFormat                           : AVI\nFile size                        : 1.37 GiB\nDuration                         : 1h 42mn\nOverall bit rate                 : 1 913 Kbps\n\nVideo\nID                               : 0\nFormat                           : MPEG-4 Visual\nCodec ID/Hint                    : XviD\nDuration                         : 1h 42mn\nBit rate                         : 1 454 Kbps\nWidth                            : 720 pixels\nHeight                           : 554 pixels\nDisplay aspect ratio             : 16:9\nColorimetry                      : 4:2:0\nScan type                        : Progressive\nBits/(Pixel*Frame)               : 0.146\nStream size                      : 1.04 GiB (76%)\nWriting library                  : XviD 1.1.2 (UTC 2006-11-01)\n\nAudio\nID                               : 1\nFormat                           : AC-3\nDuration                         : 1h 42mn\nBit rate mode                    : Constant\nBit rate                         : 448 Kbps\nChannel(s)                       : 6 channels\nChannel positions                : Front: L C R, Side: L R, LFE\nSampling rate                    : 48.0 KHz\nStream size                      : 328 MiB (23%)\n &lt;a href=&quot;\nhttp://www.imdb.com/title/tt0391304/&quot; rel=&quot;nofollow&quot; target=&quot;_NEW&quot;&gt;\nhttp://www.imdb.com/title/tt0391304/&lt;/a&gt;","torrent":{"xt":"urn:btih:ee7ea5b5fff274f672ddc7ea961598a757b654cf","amp;dn":"A+Lot+Like+Love.2005.SWESUB.DVDRip.XviD.AC3.%285.1%29.-Zen_Bud","amp;tr":["udp%3A%2F%2Ftracker.openbittorrent.com%3A80","udp%3A%2F%2Fopen.demonii.com%3A1337","udp%3A%2F%2Ftracker.coppersurfer.tk%3A6969","udp%3A%2F%2Fexodus.desync.com%3A6969"],"infoHash":"ee7ea5b5fff274f672ddc7ea961598a757b654cf","infoHashBuffer":{"type":"Buffer","data":[238,126,165,181,255,242,116,246,114,221,199,234,150,21,152,167,87,182,84,207]},"announce":[],"urlList":[]}}